PathFileType	4	(X/Y/Z)	/Users/itak/Documents/Research/Walk-IL/dataset/trc/00459_00167.trc
DataRate	CameraRate	NumFrames	NumMarkers	Units	OrigDataRate	OrigDataStartFrame	OrigNumFrames
100.000000	100.000000	4	53	mm	100.000000	74	592
Frame#	Time	RPSI			LPSI			L3			STRN			T10			C7			CLAV			RBAK			LBAK			LSHO			LUPA			LAEL			LAOL			LWTS			LWPS			LFRA			LIFD			LHPS			LHTS			RSHO			RUPA			RAEL			RAOL			RWTS			RWPS			RFRA			RIFD			RHTS			RHPS			RBHD			LFHD			RFHD			LBHD			LHIP			RHIP			RASI			LASI			LKNE			LTHI			LANK			LTIP			LTOE			LMT1			LMT5			LHEE			RKNE			RTHI			RANK			RTIP			RTOE			RMT1			RMT5			RHEE			
		X1	Y1	Z1	X2	Y2	Z2	X3	Y3	Z3	X4	Y4	Z4	X5	Y5	Z5	X6	Y6	Z6	X7	Y7	Z7	X8	Y8	Z8	X9	Y9	Z9	X10	Y10	Z10	X11	Y11	Z11	X12	Y12	Z12	X13	Y13	Z13	X14	Y14	Z14	X15	Y15	Z15	X16	Y16	Z16	X17	Y17	Z17	X18	Y18	Z18	X19	Y19	Z19	X20	Y20	Z20	X21	Y21	Z21	X22	Y22	Z22	X23	Y23	Z23	X24	Y24	Z24	X25	Y25	Z25	X26	Y26	Z26	X27	Y27	Z27	X28	Y28	Z28	X29	Y29	Z29	X30	Y30	Z30	X31	Y31	Z31	X32	Y32	Z32	X33	Y33	Z33	X34	Y34	Z34	X35	Y35	Z35	X36	Y36	Z36	X37	Y37	Z37	X38	Y38	Z38	X39	Y39	Z39	X40	Y40	Z40	X41	Y41	Z41	X42	Y42	Z42	X43	Y43	Z43	X44	Y44	Z44	X45	Y45	Z45	X46	Y46	Z46	X47	Y47	Z47	X48	Y48	Z48	X49	Y49	Z49	X50	Y50	Z50	X51	Y51	Z51	X52	Y52	Z52	X53	Y53	Z53	

75	0.74	-1278.880249023438	954.0247802734375	-546.2352294921875	-1294.986450195312	957.8327026367188	-687.048828125	-1273.594848632812	1047.252563476562	-602.2877807617188	-1011.409606933594	1258.772583007812	-660.8223876953125	-1294.761962890625	1165.313232421875	-599.6741333007812	-1239.516357421875	1438.686401367188	-600.2091064453125	-1054.859375	1370.063354492188	-656.5183715820312	-1270.576171875	1315.20556640625	-498.6990966796875	-1291.154541015625	1384.673950195312	-687.0435180664062	-1218.293334960938	1418.970336914062	-787.9434814453125	-1242.151733398438	1298.5244140625	-883.1351928710938	-1200.204711914062	1081.933715820312	-914.5995483398438	-1266.173828125	1064.5546875	-836.554931640625	-1093.988159179688	889.588623046875	-872.2997436523438	-1145.209106445312	867.7211303710938	-922.1002197265625	-1170.972900390625	996.0247802734375	-923.54345703125	-1078.042114257812	719.982177734375	-867.6246948242188	-1132.151245117188	788.59619140625	-918.2777709960938	-1074.962036132812	801.8654174804688	-880.4972534179688	-1142.30029296875	1419.958984375	-460.4612121582031	-1144.95751953125	1360.942504882812	-380.9388732910156	-1113.164916992188	1078.603759765625	-316.3346252441406	-1172.317260742188	1058.689208984375	-342.0433654785156	-1015.92431640625	877.1663208007812	-382.3534851074219	-1064.561645507812	861.7700805664062	-310.2569580078125	-1103.609375	1020.389221191406	-307.2361145019531	-1006.321716308594	721.1356811523438	-370.98974609375	-993.0711669921875	780.3265991210938	-372.2637023925781	-1045.101684570312	775.83154296875	-315.043701171875	-1160.819458007812	1643.03662109375	-538.11083984375	-1046.823364257812	1671.623046875	-708.3375244140625	-1031.773559570312	1673.218994140625	-578.5076904296875	-1197.20947265625	1643.625	-712.1368408203125	-1176.241943359375	859.5640869140625	-824.2777099609375	-1144.056396484375	854.0214233398438	-422.35546875	-1049.302001953125	898.0093383789062	-499.976318359375	-1068.784545898438	897.1175537109375	-756.7593994140625	-1192.465209960938	440.5892639160156	-768.0706176757812	-1158.9833984375	590.572265625	-800.5310668945312	-1294.812866210938	38.40580749511719	-731.9679565429688	-1211.901245117188	292.8319091796875	-771.3277587890625	-1055.280395507812	43.98405838012695	-681.9625244140625	-1127.199462890625	52.76142120361328	-648.3881225585938	-1142.000244140625	44.07659912109375	-762.1556396484375	-1331.245483398438	47.81045913696289	-663.0048217773438	-1086.188842773438	470.4413452148438	-421.6355895996094	-1087.167236328125	727.624755859375	-410.5813598632812	-1242.790161132812	62.29480743408203	-356.3029174804688	-1122.7548828125	336.9666442871094	-391.0539855957031	-1039.630981445312	46.26726150512695	-432.0752563476562	-1104.694580078125	53.25530242919922	-458.9889526367188	-1110.657592773438	47.40663528442383	-352.2486267089844	-1314.136840820312	70.21076965332031	-395.3865661621094	
76	0.75	-1278.984008789062	953.4424438476562	-548.22607421875	-1295.139892578125	957.3341674804688	-689.0524291992188	-1273.778076171875	1047.264770507812	-604.6998291015625	-1011.162780761719	1258.458984375	-663.4132080078125	-1294.690551757812	1165.613403320312	-602.2111206054688	-1238.720092773438	1438.780883789062	-602.799072265625	-1054.310913085938	1369.853881835938	-659.0389404296875	-1270.053100585938	1315.380615234375	-501.1580505371094	-1290.386840820312	1384.972900390625	-689.7781372070312	-1217.289306640625	1418.991088867188	-790.681884765625	-1241.180297851562	1298.571044921875	-885.8762817382812	-1199.859008789062	1081.822143554688	-917.1812744140625	-1266.19482421875	1064.71435546875	-839.361083984375	-1094.60791015625	889.0552368164062	-874.423828125	-1145.740112304688	867.3601684570312	-924.4669189453125	-1170.9111328125	995.78369140625	-926.00341796875	-1079.347412109375	719.390869140625	-869.6531982421875	-1132.864501953125	788.1357421875	-920.5585327148438	-1075.764892578125	801.2449951171875	-882.6425170898438	-1141.462036132812	1419.82861328125	-462.9906005859375	-1144.119384765625	1360.83642578125	-383.5085754394531	-1112.63671875	1078.687866210938	-318.3761291503906	-1171.838989257812	1058.776489257812	-343.9954528808594	-1015.698547363281	876.9386596679688	-384.0021362304688	-1064.296020507812	861.808837890625	-311.7907409667969	-1103.13623046875	1020.513671875	-309.1386108398438	-1006.302917480469	720.9334716796875	-372.2484741210938	-993.0181884765625	780.1336669921875	-373.562744140625	-1044.962524414062	775.8366088867188	-316.3937072753906	-1159.8291015625	1642.931030273438	-540.6723022460938	-1045.62646484375	1671.251342773438	-710.797607421875	-1030.714599609375	1672.8720703125	-580.9519653320312	-1196.049682617188	1643.489624023438	-714.7379150390625	-1176.532836914062	859.1934814453125	-826.2393188476562	-1142.97509765625	854.1240844726562	-424.5003662109375	-1049.007446289062	898.6531982421875	-502.5443420410156	-1068.950561523438	897.0531005859375	-759.175537109375	-1192.519775390625	440.4267883300781	-769.2587890625	-1159.202270507812	590.3822021484375	-802.115478515625	-1294.774047851562	38.34084701538086	-731.9935913085938	-1211.88916015625	292.5869140625	-772.1092529296875	-1055.209838867188	43.93465805053711	-681.9931640625	-1127.089111328125	52.86343765258789	-648.50830078125	-1141.9599609375	43.94731903076172	-762.352783203125	-1331.242065429688	47.88405227661133	-663.0690307617188	-1078.429077148438	471.7821655273438	-423.8139343261719	-1083.909057617188	728.3795776367188	-413.2235412597656	-1241.481689453125	65.96755218505859	-356.3822326660156	-1116.815673828125	338.8363037109375	-392.5085144042969	-1039.43994140625	46.15365219116211	-432.2117309570312	-1104.14599609375	53.24213409423828	-459.1758117675781	-1110.106689453125	47.79035568237305	-352.6591186523438	-1312.551879882812	75.64302062988281	-395.5122985839844	
77	0.76	-1279.141723632812	952.8395385742188	-550.169189453125	-1295.325439453125	956.828369140625	-691.0103759765625	-1273.984985351562	1047.283935546875	-607.1083984375	-1010.870544433594	1258.143676757812	-665.9754028320312	-1294.622924804688	1165.907592773438	-604.780029296875	-1237.908813476562	1438.8642578125	-605.40576171875	-1053.7255859375	1369.642700195312	-661.5431518554688	-1269.541381835938	1315.552001953125	-503.6563720703125	-1289.581909179688	1385.261474609375	-692.5242919921875	-1216.244995117188	1419.0283203125	-793.3985595703125	-1240.15576171875	1298.660888671875	-888.636474609375	-1199.4638671875	1081.762329101562	-919.8063354492188	-1266.181518554688	1064.92236328125	-842.2323608398438	-1095.259399414062	888.5260009765625	-876.6175537109375	-1146.287109375	867.03662109375	-926.933837890625	-1170.827270507812	995.591796875	-928.527099609375	-1080.767578125	718.7890625	-871.7841186523438	-1133.632690429688	787.703125	-922.9526977539062	-1076.567749023438	800.6390991210938	-884.847900390625	-1140.655883789062	1419.69970703125	-465.5232849121094	-1143.338745117188	1360.731079101562	-386.0838623046875	-1112.1552734375	1078.770263671875	-320.4308776855469	-1171.393432617188	1058.8525390625	-345.9895324707031	-1015.446899414062	876.7380981445312	-385.6538391113281	-1064.028564453125	861.8580932617188	-313.3466491699219	-1102.69970703125	1020.6376953125	-311.0579833984375	-1006.228698730469	720.760498046875	-373.5194396972656	-992.9169921875	779.9718017578125	-374.8756408691406	-1044.800048828125	775.8568115234375	-317.7625122070312	-1158.826171875	1642.83544921875	-543.232177734375	-1044.3779296875	1670.863037109375	-713.238037109375	-1029.623779296875	1672.504028320312	-583.3755493164062	-1194.845947265625	1643.367919921875	-717.3413696289062	-1176.852783203125	858.8342895507812	-828.1558227539062	-1141.90283203125	854.2507934570312	-426.6081848144531	-1048.772583007812	899.3533325195312	-505.0700073242188	-1069.150512695312	896.9822998046875	-761.5489501953125	-1192.593505859375	440.2695922851562	-770.4204711914062	-1159.453247070312	590.2007446289062	-803.6682739257812	-1294.755126953125	38.29658126831055	-732.0172729492188	-1211.880859375	292.3412475585938	-772.8663330078125	-1055.140869140625	43.88261795043945	-682.02880859375	-1126.969970703125	52.96620941162109	-648.6259765625	-1141.923706054688	43.82863616943359	-762.546142578125	-1331.236694335938	47.954345703125	-663.1202392578125	-1070.272094726562	473.2983093261719	-426.0463562011719	-1080.522583007812	729.2554321289062	-415.8615112304688	-1239.966674804688	70.07920837402344	-356.5895690917969	-1110.463745117188	340.9051208496094	-394.0642700195312	-1039.243286132812	46.01211166381836	-432.3691101074219	-1103.514282226562	53.26613235473633	-459.431396484375	-1109.449584960938	48.34191131591797	-353.134765625	-1310.67138671875	81.55747985839844	-395.8023376464844	
78	0.77	-1279.337524414062	952.207763671875	-552.0518188476562	-1295.533935546875	956.3171997070312	-692.9102172851562	-1274.196166992188	1047.2939453125	-609.495361328125	-1010.522888183594	1257.824096679688	-668.4951171875	-1294.546752929688	1166.189453125	-607.3634033203125	-1237.079345703125	1438.93115234375	-608.01708984375	-1053.09814453125	1369.424560546875	-664.0200805664062	-1269.036010742188	1315.716552734375	-506.1825256347656	-1288.740234375	1385.531372070312	-695.2678833007812	-1215.16015625	1419.07373046875	-796.0817260742188	-1239.08447265625	1298.787841796875	-891.4037475585938	-1199.025268554688	1081.74951171875	-922.4683227539062	-1266.132568359375	1065.170532226562	-845.1598510742188	-1095.933349609375	888.003173828125	-878.8890380859375	-1146.843017578125	866.7507934570312	-929.5005493164062	-1170.724609375	995.4483642578125	-931.1137084960938	-1082.288452148438	718.1784057617188	-874.030029296875	-1134.454467773438	787.3059692382812	-925.464111328125	-1077.353271484375	800.0552368164062	-887.114013671875	-1139.876098632812	1419.5703125	-468.0475158691406	-1142.614501953125	1360.623291015625	-388.6529235839844	-1111.739868164062	1078.845092773438	-322.4908447265625	-1170.994750976562	1058.90869140625	-348.0270690917969	-1015.164123535156	876.573486328125	-387.295654296875	-1063.768798828125	861.9136962890625	-314.9257507324219	-1102.318115234375	1020.751770019531	-312.9905090332031	-1006.084655761719	720.6221923828125	-374.8022155761719	-992.754638671875	779.8462524414062	-376.2022399902344	-1044.616455078125	775.8909912109375	-319.153564453125	-1157.812866210938	1642.744140625	-545.7870483398438	-1043.079956054688	1670.458251953125	-715.6539916992188	-1028.5009765625	1672.116943359375	-585.7733154296875	-1193.5986328125	1643.255249023438	-719.9420776367188	-1177.187377929688	858.4891357421875	-830.0220947265625	-1140.83056640625	854.3895874023438	-428.6698303222656	-1048.583862304688	900.0922241210938	-507.5411682128906	-1069.375122070312	896.8995361328125	-763.8663940429688	-1192.673950195312	440.1156005859375	-771.5490112304688	-1159.717407226562	590.02392578125	-805.1782836914062	-1294.758056640625	38.27495956420898	-732.04150390625	-1211.868896484375	292.0950622558594	-773.593505859375	-1055.080322265625	43.82891082763672	-682.0650024414062	-1126.85302734375	53.06425476074219	-648.7401733398438	-1141.894287109375	43.72160339355469	-762.7307739257812	-1331.230224609375	48.01932144165039	-663.1605224609375	-1061.779296875	474.9872131347656	-428.3372192382812	-1077.023681640625	730.2479858398438	-418.4779663085938	-1238.235229492188	74.62590026855469	-356.9516906738281	-1103.740478515625	343.1633911132812	-395.7326354980469	-1039.027465820312	45.83319091796875	-432.5426025390625	-1102.78515625	53.35482406616211	-459.7536926269531	-1108.673950195312	49.10906982421875	-353.6673583984375	-1308.489990234375	87.92082214355469	-396.2835388183594	
